<svg width="10" height="15" viewBox="0 0 10 15" fill="none" xmlns="http://www.w3.org/2000/svg">
<path d="M5.49971 7.44367C5.50564 6.03804 5.82743 4.65396 6.43863 3.40513C7.04984 2.15631 7.93302 1.07838 9.01561 0.259925C8.06075 0.0604949 7.07695 0.0737214 6.12721 0.298758C5.17747 0.523794 4.2827 0.955682 3.50019 1.56677C2.71768 2.17787 2.06466 2.9547 1.58294 3.84754C1.10123 4.74038 0.801422 5.72956 0.702724 6.75175C0.604026 7.77395 0.708608 8.80663 1.00977 9.7837C1.31094 10.7608 1.80206 11.6607 2.45169 12.4259C3.10131 13.1911 3.89514 13.8046 4.78234 14.2273C5.66954 14.65 6.63058 14.8724 7.60392 14.8805C8.07822 14.8792 8.55118 14.8274 9.01561 14.7258C7.91938 13.8985 7.0277 12.805 6.41579 11.5377C5.80389 10.2703 5.48969 8.86612 5.49971 7.44367V7.44367Z" fill="#DBE1F7"/>
</svg>
