<svg width="17" height="17" viewBox="0 0 17 17" fill="none" xmlns="http://www.w3.org/2000/svg">
<path d="M11.308 16.18H5.88797C5.3637 16.1796 4.8487 16.0418 4.39427 15.7804C3.93984 15.519 3.56185 15.143 3.29797 14.69L0.597969 10C0.334664 9.54395 0.196045 9.02662 0.196045 8.50001C0.196045 7.9734 0.334664 7.45606 0.597969 7.00001L3.29797 2.31001C3.56185 1.85699 3.93984 1.48104 4.39427 1.21961C4.8487 0.958184 5.3637 0.820405 5.88797 0.820007H11.308C11.8322 0.820405 12.3472 0.958184 12.8017 1.21961C13.2561 1.48104 13.6341 1.85699 13.898 2.31001L16.598 7.00001C16.8613 7.45606 16.9999 7.9734 16.9999 8.50001C16.9999 9.02662 16.8613 9.54395 16.598 10L13.898 14.69C13.6341 15.143 13.2561 15.519 12.8017 15.7804C12.3472 16.0418 11.8322 16.1796 11.308 16.18ZM5.88797 2.82001C5.71443 2.82004 5.54388 2.86523 5.39309 2.95114C5.24231 3.03706 5.11648 3.16073 5.02797 3.31001L2.31797 8.00001C2.2302 8.15203 2.18399 8.32447 2.18399 8.50001C2.18399 8.67554 2.2302 8.84799 2.31797 9.00001L5.02797 13.69C5.11648 13.8393 5.24231 13.963 5.39309 14.0489C5.54388 14.1348 5.71443 14.18 5.88797 14.18H11.308C11.4815 14.18 11.6521 14.1348 11.8028 14.0489C11.9536 13.963 12.0795 13.8393 12.168 13.69L14.878 9.00001C14.9657 8.84799 15.0119 8.67554 15.0119 8.50001C15.0119 8.32447 14.9657 8.15203 14.878 8.00001L12.168 3.31001C12.0795 3.16073 11.9536 3.03706 11.8028 2.95114C11.6521 2.86523 11.4815 2.82004 11.308 2.82001H5.88797Z" fill="#0047FF"/>
<path d="M8.59791 11.99C7.90766 11.99 7.2329 11.7853 6.65897 11.4018C6.08504 11.0184 5.63772 10.4733 5.37357 9.83558C5.10942 9.19786 5.04031 8.49614 5.17497 7.81915C5.30963 7.14215 5.64202 6.52029 6.13011 6.03221C6.61819 5.54412 7.24005 5.21173 7.91705 5.07707C8.59404 4.94241 9.29576 5.01152 9.93348 5.27567C10.5712 5.53982 11.1163 5.98714 11.4997 6.56107C11.8832 7.135 12.0879 7.80975 12.0879 8.50001C12.0853 9.42481 11.7167 10.311 11.0628 10.9649C10.4089 11.6188 9.52271 11.9874 8.59791 11.99ZM8.59791 6.99001C8.30408 6.99004 8.01681 7.07694 7.77223 7.2398C7.52765 7.40266 7.33669 7.63419 7.22335 7.90529C7.11001 8.17639 7.07936 8.47495 7.13525 8.76342C7.19114 9.05189 7.33107 9.3174 7.53746 9.52655C7.74384 9.73571 8.00746 9.87917 8.29516 9.9389C8.58286 9.99863 8.8818 9.97196 9.15439 9.86225C9.42697 9.75254 9.66103 9.56468 9.82714 9.32229C9.99324 9.07991 10.084 8.79382 10.0879 8.50001C10.0879 8.10484 9.93093 7.72585 9.6515 7.44642C9.37207 7.16699 8.99308 7.01001 8.59791 7.01001V6.99001Z" fill="#0047FF"/>
</svg>
