<svg width="17" height="17" viewBox="0 0 17 17" fill="none" xmlns="http://www.w3.org/2000/svg">
<path fill-rule="evenodd" clip-rule="evenodd" d="M3.05565 12.4084L3.99156 11.1641V6.05492C3.99156 3.67691 5.91931 1.74916 8.29732 1.74916C10.6753 1.74916 12.6031 3.67691 12.6031 6.05492V11.1641L13.539 12.4084H11.2957V12.4084H5.29842V12.4084H3.05565ZM5.29842 14.1577H1.30344C0.582177 14.1577 0.170928 13.3338 0.604476 12.7573L2.24234 10.5797V6.05492C2.24234 2.71085 4.95325 -6.10352e-05 8.29732 -6.10352e-05C11.6414 -6.10352e-05 14.3523 2.71085 14.3523 6.05492V10.5797L15.9902 12.7573C16.4237 13.3338 16.0125 14.1577 15.2912 14.1577H11.2957C11.2957 14.5659 11.2034 14.9632 11.0324 15.3244C10.8619 15.6846 10.6196 15.9957 10.3324 16.247C10.0457 16.498 9.71737 16.6867 9.37125 16.8121C9.02518 16.9376 8.66076 17 8.29707 17C7.93339 17 7.56897 16.9376 7.22289 16.8121C6.87678 16.6867 6.54849 16.498 6.26172 16.247C5.97452 15.9957 5.73227 15.6846 5.56173 15.3244C5.39073 14.9632 5.29843 14.5659 5.29842 14.1577ZM7.04763 14.1577C7.04765 14.3012 7.07997 14.4433 7.14274 14.5759C7.20553 14.7086 7.29756 14.8291 7.41359 14.9306C7.52961 15.0321 7.66734 15.1127 7.81893 15.1676C7.97052 15.2226 8.133 15.2508 8.29707 15.2508C8.46115 15.2508 8.62363 15.2226 8.77521 15.1676C8.9268 15.1127 9.06454 15.0321 9.18056 14.9306C9.29658 14.8291 9.38862 14.7086 9.45141 14.5759C9.51418 14.4433 9.5465 14.3012 9.54652 14.1577H7.04763Z" fill="#818697"/>
</svg>
