<svg width="22" height="15" viewBox="0 0 22 15" fill="none" xmlns="http://www.w3.org/2000/svg">
<path fill-rule="evenodd" clip-rule="evenodd" d="M0.185856 6.78827C1.08759 5.00262 3.82361 0.5 10.7044 0.5C17.3656 0.5 20.3335 4.99179 21.2525 6.77985C21.4857 7.23348 21.4857 7.76773 21.2525 8.22136C20.3348 10.0082 17.3656 14.5 10.7056 14.5C3.82361 14.5 1.08759 9.99738 0.185856 8.21173C-0.0411186 7.76291 -0.0411186 7.23709 0.185856 6.78827ZM15.6171 7.49857C15.6171 10.1368 13.4246 12.2755 10.7199 12.2755C8.01523 12.2755 5.82267 10.1368 5.82267 7.49857C5.82267 4.86033 8.01523 2.72161 10.7199 2.72161C13.4246 2.72161 15.6171 4.86033 15.6171 7.49857Z" fill="#869AE3"/>
</svg>
