<svg width="10" height="16" viewBox="0 0 10 16" fill="none" xmlns="http://www.w3.org/2000/svg">
<path d="M5.48708 7.9436C5.49301 6.53798 5.81479 5.15389 6.426 3.90507C7.0372 2.65625 7.92038 1.57832 9.00298 0.759864C8.04811 0.560434 7.06432 0.57366 6.11458 0.798697C5.16483 1.02373 4.27007 1.45562 3.48755 2.06671C2.70504 2.6778 2.05202 3.45463 1.57031 4.34748C1.08859 5.24032 0.788788 6.2295 0.69009 7.25169C0.591391 8.27388 0.695974 9.30657 0.997141 10.2836C1.29831 11.2607 1.78942 12.1606 2.43905 12.9258C3.08868 13.691 3.8825 14.3046 4.76971 14.7272C5.65691 15.1499 6.61794 15.3724 7.59129 15.3804C8.06558 15.3791 8.53855 15.3273 9.00298 15.2258C7.90674 14.3984 7.01507 13.305 6.40316 12.0376C5.79125 10.7702 5.47706 9.36606 5.48708 7.9436Z" fill="#847E95"/>
</svg>
