<svg width="16" height="15" viewBox="0 0 16 15" fill="none" xmlns="http://www.w3.org/2000/svg">
<path d="M7.51564 3.63999C8.27908 3.63999 9.02537 3.86638 9.66014 4.29052C10.2949 4.71466 10.7897 5.31751 11.0818 6.02284C11.374 6.72816 11.4504 7.50428 11.3015 8.25304C11.1525 9.00181 10.7849 9.6896 10.2451 10.2294C9.70524 10.7693 9.01746 11.1369 8.26869 11.2858C7.51992 11.4348 6.74381 11.3583 6.03848 11.0662C5.33316 10.774 4.73031 10.2793 4.30617 9.6445C3.88203 9.00972 3.65564 8.26343 3.65564 7.49999C3.65564 6.47626 4.06232 5.49445 4.78621 4.77056C5.5101 4.04667 6.49191 3.63999 7.51564 3.63999V3.63999ZM7.51564 2.63999C6.55442 2.63999 5.61479 2.92503 4.81557 3.45905C4.01635 3.99308 3.39343 4.7521 3.02559 5.64015C2.65775 6.5282 2.5615 7.50539 2.74903 8.44813C2.93655 9.39088 3.39942 10.2568 4.0791 10.9365C4.75879 11.6162 5.62475 12.0791 6.5675 12.2666C7.51025 12.4541 8.48743 12.3579 9.37548 11.99C10.2635 11.6222 11.0226 10.9993 11.5566 10.2001C12.0906 9.40084 12.3756 8.46121 12.3756 7.49999C12.377 6.8614 12.2522 6.22883 12.0084 5.63859C11.7646 5.04836 11.4067 4.51207 10.9551 4.06052C10.5036 3.60896 9.96728 3.25103 9.37704 3.00726C8.7868 2.76348 8.15424 2.63868 7.51564 2.63999V2.63999Z" fill="#8AABFF"/>
<path d="M7.51562 0V1.94" stroke="#8AABFF" stroke-miterlimit="10"/>
<path d="M7.51562 13.06V15" stroke="#8AABFF" stroke-miterlimit="10"/>
<path d="M15.0156 7.5H13.0756" stroke="#8AABFF" stroke-miterlimit="10"/>
<path d="M1.95563 7.5H0.015625" stroke="#8AABFF" stroke-miterlimit="10"/>
<path d="M12.8156 2.20001L11.4456 3.57001" stroke="#8AABFF" stroke-miterlimit="10"/>
<path d="M3.58564 11.43L2.21564 12.8" stroke="#8AABFF" stroke-miterlimit="10"/>
<path d="M12.8156 12.8L11.4456 11.43" stroke="#8AABFF" stroke-miterlimit="10"/>
<path d="M3.58564 3.57001L2.21564 2.20001" stroke="#8AABFF" stroke-miterlimit="10"/>
</svg>
