<svg width="16" height="16" viewBox="0 0 16 16" fill="none" xmlns="http://www.w3.org/2000/svg">
<path d="M7.50282 4.14003C8.26626 4.14003 9.01255 4.36641 9.64733 4.79055C10.2821 5.21469 10.7768 5.81754 11.069 6.52287C11.3612 7.22819 11.4376 8.00431 11.2887 8.75307C11.1397 9.50184 10.7721 10.1896 10.2323 10.7295C9.69243 11.2693 9.00464 11.6369 8.25587 11.7859C7.50711 11.9348 6.73099 11.8584 6.02567 11.5662C5.32034 11.274 4.71749 10.7793 4.29335 10.1445C3.86921 9.50975 3.64282 8.76346 3.64282 8.00002C3.64282 6.97629 4.0495 5.99448 4.77339 5.27059C5.49728 4.5467 6.47909 4.14003 7.50282 4.14003ZM7.50282 3.14002C6.54161 3.14002 5.60198 3.42506 4.80275 3.95908C4.00353 4.49311 3.38061 5.25213 3.01277 6.14018C2.64493 7.02823 2.54868 8.00542 2.73621 8.94816C2.92373 9.89091 3.3866 10.7569 4.06629 11.4366C4.74597 12.1162 5.61194 12.5791 6.55469 12.7666C7.49743 12.9542 8.47462 12.8579 9.36267 12.4901C10.2507 12.1222 11.0097 11.4993 11.5438 10.7001C12.0778 9.90087 12.3628 8.96124 12.3628 8.00002C12.3641 7.36143 12.2393 6.72886 11.9956 6.13863C11.7518 5.54839 11.3939 5.0121 10.9423 4.56055C10.4907 4.10899 9.95446 3.75106 9.36422 3.50729C8.77399 3.26351 8.14142 3.13871 7.50282 3.14002Z" fill="#1F1A2D"/>
<path d="M7.50293 0.5V2.44" stroke="#1F1A2D" stroke-miterlimit="10"/>
<path d="M7.50293 13.5601V15.5001" stroke="#1F1A2D" stroke-miterlimit="10"/>
<path d="M15.003 8H13.063" stroke="#1F1A2D" stroke-miterlimit="10"/>
<path d="M1.94293 8H0.00292969" stroke="#1F1A2D" stroke-miterlimit="10"/>
<path d="M12.8029 2.69995L11.4329 4.06995" stroke="#1F1A2D" stroke-miterlimit="10"/>
<path d="M3.57288 11.9301L2.20288 13.3001" stroke="#1F1A2D" stroke-miterlimit="10"/>
<path d="M12.8029 13.3001L11.4329 11.9301" stroke="#1F1A2D" stroke-miterlimit="10"/>
<path d="M3.57288 4.06995L2.20288 2.69995" stroke="#1F1A2D" stroke-miterlimit="10"/>
</svg>
