<svg width="17" height="15" viewBox="0 0 17 15" fill="none" xmlns="http://www.w3.org/2000/svg">
<mask id="path-1-inside-1_0_61" fill="white">
<path d="M3.39999 1.08716C3.39999 0.534875 3.84771 0.0871582 4.39999 0.0871582H12.6C13.1523 0.0871582 13.6 0.534873 13.6 1.08716V6.03716C13.6 8.85381 11.3166 11.1372 8.49999 11.1372C5.68334 11.1372 3.39999 8.85381 3.39999 6.03716V1.08716Z"/>
</mask>
<path d="M3.39999 1.08716C3.39999 0.534875 3.84771 0.0871582 4.39999 0.0871582H12.6C13.1523 0.0871582 13.6 0.534873 13.6 1.08716V6.03716C13.6 8.85381 11.3166 11.1372 8.49999 11.1372C5.68334 11.1372 3.39999 8.85381 3.39999 6.03716V1.08716Z" stroke="#818697" stroke-width="4" mask="url(#path-1-inside-1_0_61)"/>
<mask id="path-2-inside-2_0_61" fill="white">
<path d="M11.9 13.8288C11.9 14.22 11.5829 14.5371 11.1917 14.5371L5.80833 14.5371C5.41712 14.5371 5.09999 14.22 5.09999 13.8288L5.09999 13.6871C5.09999 11.8093 6.62223 10.2871 8.49999 10.2871C10.3778 10.2871 11.9 11.8093 11.9 13.6871L11.9 13.8288Z"/>
</mask>
<path d="M11.9 13.8288C11.9 14.22 11.5829 14.5371 11.1917 14.5371L5.80833 14.5371C5.41712 14.5371 5.09999 14.22 5.09999 13.8288L5.09999 13.6871C5.09999 11.8093 6.62223 10.2871 8.49999 10.2871C10.3778 10.2871 11.9 11.8093 11.9 13.6871L11.9 13.8288Z" stroke="#818697" stroke-width="4" mask="url(#path-2-inside-2_0_61)"/>
<mask id="path-3-inside-3_0_61" fill="white">
<path d="M12.4667 5.99353C12.1537 5.99353 11.9 5.73982 11.9 5.42686L11.9 0.0435305L15.81 0.0435303C16.4672 0.0435303 17 0.576311 17 1.23353L17 1.46019C17 3.96389 14.9704 5.99353 12.4667 5.99353Z"/>
</mask>
<path d="M12.4667 5.99353C12.1537 5.99353 11.9 5.73982 11.9 5.42686L11.9 0.0435305L15.81 0.0435303C16.4672 0.0435303 17 0.576311 17 1.23353L17 1.46019C17 3.96389 14.9704 5.99353 12.4667 5.99353Z" stroke="#818697" stroke-width="4" mask="url(#path-3-inside-3_0_61)"/>
<mask id="path-4-inside-4_0_61" fill="white">
<path d="M4.53334 5.94995C4.8463 5.94995 5.10001 5.69625 5.10001 5.38328L5.10001 -4.86374e-05L1.19 -4.87603e-05C0.532786 -4.8781e-05 6.05128e-06 0.532732 6.01134e-06 1.18995L5.99756e-06 1.41662C5.8454e-06 3.92031 2.02965 5.94995 4.53334 5.94995Z"/>
</mask>
<path d="M4.53334 5.94995C4.8463 5.94995 5.10001 5.69625 5.10001 5.38328L5.10001 -4.86374e-05L1.19 -4.87603e-05C0.532786 -4.8781e-05 6.05128e-06 0.532732 6.01134e-06 1.18995L5.99756e-06 1.41662C5.8454e-06 3.92031 2.02965 5.94995 4.53334 5.94995Z" stroke="#818697" stroke-width="4" mask="url(#path-4-inside-4_0_61)"/>
</svg>
