<svg width="17" height="16" viewBox="0 0 17 16" fill="none" xmlns="http://www.w3.org/2000/svg">
<mask id="path-1-inside-1_0_3180" fill="white">
<path d="M3.3999 1.8186C3.3999 1.26632 3.84762 0.818604 4.3999 0.818604H12.5999C13.1522 0.818604 13.5999 1.26632 13.5999 1.8186V6.7686C13.5999 9.58525 11.3166 11.8686 8.4999 11.8686C5.68325 11.8686 3.3999 9.58526 3.3999 6.7686V1.8186Z"/>
</mask>
<path d="M3.3999 1.8186C3.3999 1.26632 3.84762 0.818604 4.3999 0.818604H12.5999C13.1522 0.818604 13.5999 1.26632 13.5999 1.8186V6.7686C13.5999 9.58525 11.3166 11.8686 8.4999 11.8686C5.68325 11.8686 3.3999 9.58526 3.3999 6.7686V1.8186Z" stroke="white" stroke-width="4" mask="url(#path-1-inside-1_0_3180)"/>
<mask id="path-2-inside-2_0_3180" fill="white">
<path d="M11.8999 14.5602C11.8999 14.9514 11.5828 15.2686 11.1916 15.2686L5.80823 15.2686C5.41703 15.2686 5.0999 14.9514 5.0999 14.5602L5.0999 14.4186C5.0999 12.5408 6.62213 11.0186 8.4999 11.0186C10.3777 11.0186 11.8999 12.5408 11.8999 14.4186L11.8999 14.5602Z"/>
</mask>
<path d="M11.8999 14.5602C11.8999 14.9514 11.5828 15.2686 11.1916 15.2686L5.80823 15.2686C5.41703 15.2686 5.0999 14.9514 5.0999 14.5602L5.0999 14.4186C5.0999 12.5408 6.62213 11.0186 8.4999 11.0186C10.3777 11.0186 11.8999 12.5408 11.8999 14.4186L11.8999 14.5602Z" stroke="white" stroke-width="4" mask="url(#path-2-inside-2_0_3180)"/>
<mask id="path-3-inside-3_0_3180" fill="white">
<path d="M12.4666 6.72498C12.1536 6.72498 11.8999 6.47127 11.8999 6.15831L11.8999 0.774976L15.8099 0.774976C16.4671 0.774976 16.9999 1.30776 16.9999 1.96498L16.9999 2.19164C16.9999 4.69533 14.9703 6.72498 12.4666 6.72498Z"/>
</mask>
<path d="M12.4666 6.72498C12.1536 6.72498 11.8999 6.47127 11.8999 6.15831L11.8999 0.774976L15.8099 0.774976C16.4671 0.774976 16.9999 1.30776 16.9999 1.96498L16.9999 2.19164C16.9999 4.69533 14.9703 6.72498 12.4666 6.72498Z" stroke="white" stroke-width="4" mask="url(#path-3-inside-3_0_3180)"/>
<mask id="path-4-inside-4_0_3180" fill="white">
<path d="M4.53343 6.6814C4.84639 6.6814 5.1001 6.42769 5.1001 6.11473L5.1001 0.731397L1.1901 0.731397C0.532878 0.731397 9.7604e-05 1.26418 9.75641e-05 1.9214L9.75503e-05 2.14806C9.73981e-05 4.65175 2.02974 6.6814 4.53343 6.6814Z"/>
</mask>
<path d="M4.53343 6.6814C4.84639 6.6814 5.1001 6.42769 5.1001 6.11473L5.1001 0.731397L1.1901 0.731397C0.532878 0.731397 9.7604e-05 1.26418 9.75641e-05 1.9214L9.75503e-05 2.14806C9.73981e-05 4.65175 2.02974 6.6814 4.53343 6.6814Z" stroke="white" stroke-width="4" mask="url(#path-4-inside-4_0_3180)"/>
</svg>
