<svg width="18" height="18" viewBox="0 0 18 18" fill="none" xmlns="http://www.w3.org/2000/svg">
<path d="M11.48 7.18994H6.47998C6.21476 7.18994 5.96041 7.2953 5.77287 7.48283C5.58534 7.67037 5.47998 7.92472 5.47998 8.18994C5.47998 8.45516 5.58534 8.70951 5.77287 8.89705C5.96041 9.08458 6.21476 9.18994 6.47998 9.18994H11.48C11.7452 9.18994 11.9996 9.08458 12.1871 8.89705C12.3746 8.70951 12.48 8.45516 12.48 8.18994C12.48 7.92472 12.3746 7.67037 12.1871 7.48283C11.9996 7.2953 11.7452 7.18994 11.48 7.18994Z" fill="#847E95"/>
<path d="M11.48 10.25H6.47998C6.21476 10.25 5.96041 10.3554 5.77287 10.5429C5.58534 10.7304 5.47998 10.9848 5.47998 11.25C5.47998 11.5152 5.58534 11.7696 5.77287 11.9571C5.96041 12.1446 6.21476 12.25 6.47998 12.25H11.48C11.7452 12.25 11.9996 12.1446 12.1871 11.9571C12.3746 11.7696 12.48 11.5152 12.48 11.25C12.48 10.9848 12.3746 10.7304 12.1871 10.5429C11.9996 10.3554 11.7452 10.25 11.48 10.25Z" fill="#847E95"/>
<path d="M12.8201 2.0799H12.4801V1.6499C12.4801 1.38469 12.3747 1.13033 12.1872 0.942796C11.9997 0.755259 11.7453 0.649902 11.4801 0.649902C11.2149 0.649902 10.9605 0.755259 10.773 0.942796C10.5854 1.13033 10.4801 1.38469 10.4801 1.6499V2.0799H7.48009V1.6499C7.48009 1.38469 7.37474 1.13033 7.1872 0.942796C6.99966 0.755259 6.74531 0.649902 6.48009 0.649902C6.21488 0.649902 5.96052 0.755259 5.77299 0.942796C5.58545 1.13033 5.48009 1.38469 5.48009 1.6499V2.0799H5.18009C4.79934 2.08119 4.42262 2.15796 4.07173 2.30578C3.72084 2.4536 3.40274 2.66953 3.13584 2.94108C2.86894 3.21263 2.65853 3.53441 2.51679 3.8878C2.37506 4.24119 2.3048 4.61918 2.31009 4.9999V14.5299C2.31009 15.2911 2.61247 16.0211 3.1507 16.5593C3.68893 17.0975 4.41892 17.3999 5.18009 17.3999H12.8201C13.197 17.3999 13.5702 17.3257 13.9184 17.1814C14.2666 17.0372 14.583 16.8258 14.8495 16.5593C15.116 16.2928 15.3274 15.9764 15.4716 15.6282C15.6159 15.28 15.6901 14.9068 15.6901 14.5299V4.9999C15.6954 4.61918 15.6251 4.24119 15.4834 3.8878C15.3417 3.53441 15.1312 3.21263 14.8643 2.94108C14.5974 2.66953 14.2793 2.4536 13.9285 2.30578C13.5776 2.15796 13.2008 2.08119 12.8201 2.0799V2.0799ZM13.6901 14.4799C13.6901 14.7106 13.5984 14.9319 13.4353 15.0951C13.2721 15.2582 13.0508 15.3499 12.8201 15.3499H5.18009C4.94935 15.3499 4.72807 15.2582 4.56491 15.0951C4.40175 14.9319 4.31009 14.7106 4.31009 14.4799V4.9999C4.31009 4.76916 4.40175 4.54788 4.56491 4.38472C4.72807 4.22156 4.94935 4.1299 5.18009 4.1299H5.52009V4.5599C5.52009 4.82512 5.62545 5.07947 5.81299 5.26701C6.00052 5.45455 6.25488 5.5599 6.52009 5.5599C6.78531 5.5599 7.03966 5.45455 7.2272 5.26701C7.41474 5.07947 7.52009 4.82512 7.52009 4.5599V4.0799H10.5201V4.5099C10.5201 4.77512 10.6254 5.02947 10.813 5.21701C11.0005 5.40455 11.2549 5.5099 11.5201 5.5099C11.7853 5.5099 12.0397 5.40455 12.2272 5.21701C12.4147 5.02947 12.5201 4.77512 12.5201 4.5099V4.0799H12.8601C13.0908 4.0799 13.3121 4.17156 13.4753 4.33472C13.6384 4.49788 13.7301 4.71916 13.7301 4.9499L13.6901 14.4799Z" fill="#847E95"/>
</svg>
