<svg width="14" height="16" viewBox="0 0 14 16" fill="none" xmlns="http://www.w3.org/2000/svg">
<path d="M13.73 2.74003C13.6634 2.48383 13.498 2.26446 13.27 2.13003L10.55 0.500027C10.3219 0.364807 10.0494 0.325716 9.79252 0.391351C9.5356 0.456985 9.31528 0.621971 9.17999 0.850027L4.64999 8.43003C4.54134 8.61031 4.49235 8.82028 4.50999 9.03003L4.72999 11.76C4.74316 11.9198 4.79455 12.0741 4.87983 12.2098C4.96511 12.3456 5.08177 12.4588 5.21999 12.54C5.37434 12.6316 5.55051 12.68 5.72999 12.68C5.86836 12.6802 6.00501 12.6494 6.12999 12.59L8.63999 11.49C8.82895 11.4034 8.98625 11.2601 9.08999 11.08L13.62 3.50003C13.6875 3.38684 13.732 3.26143 13.7508 3.13101C13.7697 3.00058 13.7626 2.86771 13.73 2.74003ZM11.33 3.48003L7.56999 9.78003C7.52011 9.86015 7.4468 9.92299 7.35999 9.96003L6.69999 10.25C6.68307 10.2587 6.66419 10.2628 6.64521 10.262C6.62623 10.2611 6.60778 10.2554 6.59167 10.2453C6.57556 10.2353 6.56233 10.2212 6.55327 10.2045C6.54422 10.1878 6.53964 10.169 6.53999 10.15L6.47999 9.44003C6.46969 9.34269 6.49071 9.2446 6.53999 9.16003L10.3 2.86003C10.3266 2.82052 10.367 2.79243 10.4133 2.78132C10.4596 2.77021 10.5084 2.77689 10.55 2.80003L11.27 3.23003C11.3095 3.2566 11.3376 3.29704 11.3487 3.34334C11.3598 3.38963 11.3531 3.43842 11.33 3.48003Z" fill="#366EFF"/>
<path d="M10.8099 15.64H3.18995C2.36247 15.64 1.56889 15.3113 0.983773 14.7262C0.39866 14.1411 0.0699463 13.3475 0.0699463 12.52V4.90002C0.0699421 4.07162 0.398336 3.27701 0.983164 2.6903C1.56799 2.1036 2.36155 1.77267 3.18995 1.77002H5.70995C5.84127 1.77002 5.9713 1.79589 6.09263 1.84614C6.21396 1.89639 6.32419 1.97005 6.41705 2.06291C6.50991 2.15577 6.58357 2.26601 6.63383 2.38734C6.68408 2.50866 6.70995 2.6387 6.70995 2.77002C6.70995 2.90134 6.68408 3.03138 6.63383 3.1527C6.58357 3.27403 6.50991 3.38427 6.41705 3.47713C6.32419 3.56998 6.21396 3.64364 6.09263 3.6939C5.9713 3.74415 5.84127 3.77002 5.70995 3.77002H3.18995C2.89199 3.77266 2.60713 3.89287 2.39737 4.1045C2.18761 4.31613 2.06993 4.60205 2.06995 4.90002V12.52C2.06995 12.8171 2.18795 13.1019 2.39799 13.312C2.60803 13.522 2.8929 13.64 3.18995 13.64H10.8099C11.107 13.64 11.3919 13.522 11.6019 13.312C11.8119 13.1019 11.9299 12.8171 11.9299 12.52V8.71002C11.9299 8.4448 12.0353 8.19045 12.2228 8.00291C12.4104 7.81538 12.6647 7.71002 12.9299 7.71002C13.1952 7.71002 13.4495 7.81538 13.6371 8.00291C13.8246 8.19045 13.9299 8.4448 13.9299 8.71002V12.52C13.9299 13.3475 13.6012 14.1411 13.0161 14.7262C12.431 15.3113 11.6374 15.64 10.8099 15.64Z" fill="#366EFF"/>
</svg>
