<svg width="18" height="18" viewBox="0 0 18 18" fill="none" xmlns="http://www.w3.org/2000/svg">
<path d="M16.8799 5.65998C16.6145 4.91545 16.1693 4.24798 15.5839 3.71686C14.9985 3.18574 14.291 2.80741 13.5242 2.61547C12.7574 2.42353 11.9551 2.42392 11.1885 2.6166C10.4219 2.80928 9.71478 3.1883 9.12989 3.71998C9.09467 3.75303 9.04819 3.77142 8.99989 3.77142C8.9516 3.77142 8.90511 3.75303 8.86989 3.71998C8.285 3.1883 7.57786 2.80928 6.81127 2.6166C6.04468 2.42392 5.24237 2.42353 4.47559 2.61547C3.70882 2.80741 3.00131 3.18574 2.4159 3.71686C1.8305 4.24798 1.38532 4.91545 1.11989 5.65998C0.89765 6.25088 0.797257 6.88063 0.824754 7.51134C0.852251 8.14205 1.00707 8.76067 1.27989 9.32998C1.29561 9.37837 1.31569 9.42523 1.33989 9.46998C1.41459 9.62659 1.50153 9.77705 1.59989 9.91998C1.6138 9.95661 1.63411 9.99048 1.65989 10.02C2.46989 11.2 5.14989 13.35 7.25989 14.95C7.76443 15.3204 8.374 15.52 8.99989 15.52C9.62748 15.5207 10.2383 15.3171 10.7399 14.94C13.8132 12.62 15.6932 10.9533 16.3799 9.93998C16.4929 9.78335 16.5901 9.61586 16.6699 9.43998C16.6699 9.43998 16.6699 9.35998 16.6699 9.30998C16.948 8.74681 17.11 8.13342 17.1461 7.50634C17.1821 6.87926 17.0916 6.25134 16.8799 5.65998ZM3.28989 8.84998L3.19989 8.71998C3.18831 8.67324 3.16795 8.62912 3.13989 8.58998C2.95791 8.24828 2.85125 7.87155 2.8271 7.48516C2.80295 7.09877 2.86187 6.71169 2.99989 6.34998C3.16367 5.8968 3.43929 5.49234 3.80118 5.17416C4.16306 4.85599 4.59947 4.6344 5.06989 4.52998C5.56439 4.42774 6.07733 4.46113 6.5544 4.62661C7.03147 4.79209 7.45492 5.0835 7.77989 5.46998C7.77989 5.46998 7.86989 5.56998 7.85989 5.60998C7.86751 5.63269 7.86751 5.65727 7.85989 5.67998L7.40989 6.46998C7.32212 6.622 7.27592 6.79445 7.27592 6.96998C7.27592 7.14552 7.32212 7.31796 7.40989 7.46998L8.24989 8.99998C8.28403 9.06292 8.3019 9.13339 8.3019 9.20498C8.3019 9.27658 8.28403 9.34705 8.24989 9.40998L7.38989 10.82C7.30212 10.972 7.25592 11.1444 7.25592 11.32C7.25592 11.4955 7.30212 11.668 7.38989 11.82L7.91989 12.82V12.9C7.91989 12.9 7.91989 12.9 7.83989 12.9C6.18045 11.7195 4.65476 10.3614 3.28989 8.84998ZM14.8499 8.58998C14.8442 8.63648 14.8442 8.68349 14.8499 8.72998C14.8096 8.78074 14.7729 8.8342 14.7399 8.88998C13.4021 10.3465 11.9138 11.6571 10.2999 12.8C10.2915 12.8088 10.2814 12.8157 10.2702 12.8205C10.2591 12.8253 10.247 12.8277 10.2349 12.8277C10.2227 12.8277 10.2107 12.8253 10.1996 12.8205C10.1884 12.8157 10.1783 12.8088 10.1699 12.8L9.50989 11.6C9.47313 11.5325 9.45387 11.4568 9.45387 11.38C9.45387 11.3031 9.47313 11.2275 9.50989 11.16L10.3599 9.73998C10.4477 9.58796 10.4939 9.41552 10.4939 9.23998C10.4939 9.06445 10.4477 8.892 10.3599 8.73998L9.51989 7.17998C9.48568 7.11348 9.46783 7.03977 9.46783 6.96498C9.46783 6.8902 9.48568 6.81649 9.51989 6.74998C9.73097 6.34803 9.97868 5.96641 10.2599 5.60998C10.5576 5.19366 10.9679 4.87091 11.4426 4.67961C11.9173 4.48831 12.4367 4.4364 12.9399 4.52998C13.4085 4.63592 13.8428 4.85818 14.2029 5.17627C14.5629 5.49436 14.837 5.89801 14.9999 6.34998C15.139 6.71186 15.1977 7.09969 15.1718 7.48652C15.1459 7.87334 15.036 8.24989 14.8499 8.58998Z" fill="#847E95"/>
</svg>
