<svg width="17" height="19" viewBox="0 0 17 19" fill="none" xmlns="http://www.w3.org/2000/svg">
<path d="M10 5.5C10 4.94772 9.55228 4.5 9 4.5C8.44772 4.5 8 4.94772 8 5.5L10 5.5ZM8.29289 18.2071C8.68342 18.5976 9.31658 18.5976 9.70711 18.2071L16.0711 11.8431C16.4616 11.4526 16.4616 10.8195 16.0711 10.4289C15.6805 10.0384 15.0474 10.0384 14.6569 10.4289L9 16.0858L3.34315 10.4289C2.95262 10.0384 2.31946 10.0384 1.92893 10.4289C1.53841 10.8195 1.53841 11.4526 1.92893 11.8431L8.29289 18.2071ZM8 5.5L8 17.5L10 17.5L10 5.5L8 5.5Z" fill="#366EFF"/>
<line x1="16" y1="1.5" x2="1" y2="1.5" stroke="#366EFF" stroke-width="2" stroke-linecap="round"/>
</svg>
