<svg width="73" height="77" viewBox="0 0 73 77" fill="none" xmlns="http://www.w3.org/2000/svg">
<rect x="28" y="19" width="7" height="27" rx="3.5" fill="white"/>
<rect x="45" y="29" width="7" height="27" rx="3.5" transform="rotate(90 45 29)" fill="white"/>
<path fill-rule="evenodd" clip-rule="evenodd" d="M47.6372 16.6819C56.2978 25.5593 56.2978 39.9524 47.6372 48.8298C38.9766 57.7072 24.9351 57.7072 16.2745 48.8298C7.61393 39.9524 7.61393 25.5593 16.2745 16.6819C24.9351 7.80455 38.9766 7.80455 47.6372 16.6819ZM56.8241 53.3311C66.979 40.4673 66.2217 21.5558 54.552 9.59397C42.0725 -3.19799 21.8392 -3.19799 9.35965 9.59397C-3.11988 22.3859 -3.11988 43.1258 9.35965 55.9178C20.2923 67.1241 37.1755 68.5132 49.5834 60.0851L64.653 75.532C66.5625 77.4893 69.6584 77.4893 71.5679 75.532C73.4774 73.5747 73.4774 70.4014 71.5679 68.4441L56.8241 53.3311Z" fill="white"/>
</svg>
