<svg width="16" height="16" viewBox="0 0 16 16" fill="none" xmlns="http://www.w3.org/2000/svg">
<path d="M14.16 3.27656H10.9C10.7767 2.48456 10.3743 1.76273 9.76549 1.24137C9.15668 0.720013 8.38154 0.433472 7.58 0.433472C6.77846 0.433472 6.00332 0.720013 5.39451 1.24137C4.78569 1.76273 4.38331 2.48456 4.26 3.27656H1C0.734784 3.27656 0.48043 3.38191 0.292893 3.56945C0.105357 3.75699 0 4.01134 0 4.27656C0 4.54177 0.105357 4.79613 0.292893 4.98366C0.48043 5.1712 0.734784 5.27656 1 5.27656H1.83L2.4 12.7966C2.45806 13.5517 2.79959 14.2569 3.35603 14.7707C3.91247 15.2845 4.64264 15.5688 5.4 15.5666H9.78C10.5374 15.5688 11.2675 15.2845 11.824 14.7707C12.3804 14.2569 12.7219 13.5517 12.78 12.7966L13.35 5.27656H14.18C14.4452 5.27656 14.6996 5.1712 14.8871 4.98366C15.0746 4.79613 15.18 4.54177 15.18 4.27656C15.18 4.01134 15.0746 3.75699 14.8871 3.56945C14.6996 3.38191 14.4452 3.27656 14.18 3.27656H14.16ZM7.58 2.44656C7.8485 2.44507 8.11143 2.5231 8.33565 2.67081C8.55988 2.81851 8.73537 3.02928 8.84 3.27656H6.32C6.42463 3.02928 6.60012 2.81851 6.82435 2.67081C7.04857 2.5231 7.3115 2.44507 7.58 2.44656ZM10.77 12.6466C10.7498 12.8977 10.6357 13.1319 10.4503 13.3025C10.2649 13.4731 10.0219 13.5674 9.77 13.5666H5.39C5.13808 13.5674 4.89514 13.4731 4.70974 13.3025C4.52434 13.1319 4.41015 12.8977 4.39 12.6466L3.83 5.27656H11.33L10.77 12.6466Z" fill="white"/>
</svg>
