<svg width="79" height="18" viewBox="0 0 79 18" fill="none" xmlns="http://www.w3.org/2000/svg">
<g clip-path="url(#clip0_274_5)">
<path d="M38.4609 0L47.8877 18H51.4888L42.062 0H38.4609Z" fill="white"/>
<path d="M56.6109 3.25085H53.3965V17.9554H56.6109V3.25085Z" fill="white"/>
<path d="M59.8258 0.0466003H56.6113V3.25083H59.8258V0.0466003Z" fill="white"/>
<path d="M38.023 14.7259H34.8086V17.9553H38.023V14.7259Z" fill="white"/>
<path d="M11.6941 8.19313C12.3146 7.34449 12.6818 6.29778 12.6818 5.16368C12.6818 2.33619 10.401 0.0446777 7.58667 0.0446777H0V7.08233V10.2846V18H8.40816C11.408 18 13.8416 15.5551 13.8416 12.5412C13.8416 10.7662 12.9988 9.19129 11.6941 8.19313ZM3.1893 3.25085H7.58667C8.63818 3.25085 9.49252 4.10919 9.49252 5.16562C9.49252 6.22204 8.63818 7.08039 7.58667 7.08039H3.1893V3.25085ZM8.40816 14.7958H3.1893V10.2866H8.40816C9.64522 10.2866 10.6523 11.2983 10.6523 12.5412C10.6523 13.784 9.64716 14.7958 8.40816 14.7958Z" fill="white"/>
<path d="M75.7863 17.9553H79.0007V0.0466003H75.7863H75.4364L70.4901 10.4108L65.5438 0.0466003H65.1939H61.9795V17.9553H65.1939V6.78131L68.708 14.1452L69.6126 16.0425H71.3676L72.2722 14.1452L75.7863 6.78131V17.9553Z" fill="white"/>
<path d="M28.0923 17.9553H31.9387L27.6728 11.4381C29.5555 10.4128 30.8351 8.41063 30.8351 6.10553C30.8351 2.75953 28.1348 0.0446777 24.8024 0.0446777H20.983H17.7705V12.1644V17.9534H20.9849V12.1664H24.3018L28.0923 17.9553ZM20.9849 3.25085H24.8044C26.372 3.25085 27.6477 4.53254 27.6477 6.10747C27.6477 7.68239 26.372 8.96409 24.8044 8.96409H20.9849V3.25085Z" fill="white"/>
<path d="M40.9412 11.6479H38.0225V14.8773H42.6325L40.9412 11.6479Z" fill="white"/>
</g>
<defs>
<clipPath id="clip0_274_5">
<rect width="79" height="18" fill="white"/>
</clipPath>
</defs>
</svg>
