<svg width="18" height="18" viewBox="0 0 18 18" fill="none" xmlns="http://www.w3.org/2000/svg">
<path d="M11.71 16.6799H6.29C5.76574 16.6795 5.25073 16.5418 4.7963 16.2803C4.34187 16.0189 3.96388 15.643 3.7 15.1899L1 10.4999C0.736695 10.0439 0.598076 9.52656 0.598076 8.99995C0.598076 8.47334 0.736695 7.956 1 7.49995L3.7 2.80995C3.96388 2.35693 4.34187 1.98098 4.7963 1.71955C5.25073 1.45812 5.76574 1.32034 6.29 1.31995H11.71C12.2343 1.32034 12.7493 1.45812 13.2037 1.71955C13.6581 1.98098 14.0361 2.35693 14.3 2.80995L17 7.49995C17.2633 7.956 17.4019 8.47334 17.4019 8.99995C17.4019 9.52656 17.2633 10.0439 17 10.4999L14.3 15.1899C14.0361 15.643 13.6581 16.0189 13.2037 16.2803C12.7493 16.5418 12.2343 16.6795 11.71 16.6799V16.6799ZM6.29 3.31995C6.11646 3.31998 5.94591 3.36517 5.79512 3.45108C5.64434 3.53699 5.51851 3.66067 5.43 3.80995L2.72 8.49995C2.63223 8.65197 2.58603 8.82441 2.58603 8.99995C2.58603 9.17548 2.63223 9.34793 2.72 9.49995L5.43 14.1899C5.51851 14.3392 5.64434 14.4629 5.79512 14.5488C5.94591 14.6347 6.11646 14.6799 6.29 14.6799H11.71C11.8835 14.6799 12.0541 14.6347 12.2049 14.5488C12.3557 14.4629 12.4815 14.3392 12.57 14.1899L15.28 9.49995C15.3678 9.34793 15.414 9.17548 15.414 8.99995C15.414 8.82441 15.3678 8.65197 15.28 8.49995L12.57 3.80995C12.4815 3.66067 12.3557 3.53699 12.2049 3.45108C12.0541 3.36517 11.8835 3.31998 11.71 3.31995H6.29Z" fill="#366EFF"/>
<rect x="4.72793" y="9.08533" width="2" height="5.02132" rx="1" transform="rotate(-52.6249 4.72793 9.08533)" fill="#366EFF"/>
<rect x="11.553" y="5.12769" width="2" height="7.28817" rx="1" transform="rotate(37.3751 11.553 5.12769)" fill="#366EFF"/>
</svg>
