<svg width="16" height="18" viewBox="0 0 16 18" fill="none" xmlns="http://www.w3.org/2000/svg">
<path fill-rule="evenodd" clip-rule="evenodd" d="M2.67424 12.9723L3.62542 11.7076V6.51502C3.62542 4.0982 5.58464 2.13897 8.00147 2.13897C10.4183 2.13897 12.3775 4.0982 12.3775 6.51502V11.7076L13.3287 12.9723H11.0495H4.95429H2.67424ZM4.95429 14.75H0.89343C0.16039 14.75 -0.257573 13.9127 0.183052 13.3268L1.84765 11.1137V6.51502C1.84765 3.11636 4.60281 0.361206 8.00147 0.361206C11.4001 0.361206 14.1553 3.11636 14.1553 6.51502V11.1137L15.8199 13.3268C16.2605 13.9127 15.8425 14.75 15.1095 14.75H11.0495C11.0495 15.165 10.9557 15.5687 10.7819 15.9359C10.6086 16.302 10.3624 16.6182 10.0705 16.8736C9.77902 17.1286 9.44538 17.3204 9.09361 17.4479C8.74188 17.5754 8.37152 17.6389 8.0019 17.6389C7.63228 17.6389 7.26191 17.5754 6.91018 17.4479C6.55842 17.3204 6.22477 17.1286 5.93332 16.8736C5.64143 16.6182 5.39523 16.302 5.2219 15.9359C5.0481 15.5687 4.95429 15.165 4.95429 14.75ZM6.73206 14.75C6.73206 14.8959 6.76491 15.0404 6.82872 15.1752C6.89254 15.31 6.98607 15.4325 7.10399 15.5357C7.2219 15.6389 7.36189 15.7207 7.51595 15.7765C7.67002 15.8324 7.83514 15.8611 8.0019 15.8611C8.16865 15.8611 8.33378 15.8324 8.48784 15.7765C8.6419 15.7207 8.78189 15.6389 8.89981 15.5357C9.01772 15.4325 9.11126 15.31 9.17507 15.1752C9.23889 15.0404 9.27173 14.8959 9.27173 14.75H8.50983H7.49396H6.73206Z" fill="white"/>
</svg>
