<svg width="12" height="13" viewBox="0 0 12 13" fill="none" xmlns="http://www.w3.org/2000/svg">
<path fill-rule="evenodd" clip-rule="evenodd" d="M1.80281 0.673875C1.41229 0.283351 0.779121 0.283351 0.388596 0.673875C-0.00192789 1.0644 -0.00192789 1.69756 0.388596 2.08809L4.8005 6.5L0.388596 10.9119C-0.00192794 11.3024 -0.00192794 11.9356 0.388596 12.3261C0.779121 12.7166 1.41229 12.7166 1.80281 12.3261L6.04781 8.08111L10.2928 12.3261C10.6833 12.7166 11.3165 12.7166 11.707 12.3261C12.0976 11.9356 12.0976 11.3024 11.707 10.9119L7.29512 6.5L11.707 2.08809C12.0976 1.69756 12.0976 1.0644 11.707 0.673874C11.3165 0.28335 10.6833 0.283351 10.2928 0.673875L6.04781 4.91888L1.80281 0.673875Z" fill="#1F1A2D"/>
</svg>
