<svg width="14" height="18" viewBox="0 0 14 18" fill="none" xmlns="http://www.w3.org/2000/svg">
<path d="M9.47998 7.19006H4.47998C4.21476 7.19006 3.96041 7.29542 3.77287 7.48296C3.58534 7.67049 3.47998 7.92485 3.47998 8.19006C3.47998 8.45528 3.58534 8.70963 3.77287 8.89717C3.96041 9.08471 4.21476 9.19006 4.47998 9.19006H9.47998C9.7452 9.19006 9.99955 9.08471 10.1871 8.89717C10.3746 8.70963 10.48 8.45528 10.48 8.19006C10.48 7.92485 10.3746 7.67049 10.1871 7.48296C9.99955 7.29542 9.7452 7.19006 9.47998 7.19006Z" fill="#847E95"/>
<path d="M9.47998 10.25H4.47998C4.21476 10.25 3.96041 10.3554 3.77287 10.5429C3.58534 10.7304 3.47998 10.9848 3.47998 11.25C3.47998 11.5152 3.58534 11.7696 3.77287 11.9571C3.96041 12.1446 4.21476 12.25 4.47998 12.25H9.47998C9.7452 12.25 9.99955 12.1446 10.1871 11.9571C10.3746 11.7696 10.48 11.5152 10.48 11.25C10.48 10.9848 10.3746 10.7304 10.1871 10.5429C9.99955 10.3554 9.7452 10.25 9.47998 10.25Z" fill="#847E95"/>
<path d="M10.8201 2.08002H10.4801V1.65002C10.4801 1.38481 10.3747 1.13045 10.1872 0.942918C9.99966 0.755381 9.74531 0.650024 9.48009 0.650024C9.21488 0.650024 8.96052 0.755381 8.77299 0.942918C8.58545 1.13045 8.48009 1.38481 8.48009 1.65002V2.08002H5.48009V1.65002C5.48009 1.38481 5.37474 1.13045 5.1872 0.942918C4.99966 0.755381 4.74531 0.650024 4.48009 0.650024C4.21488 0.650024 3.96052 0.755381 3.77299 0.942918C3.58545 1.13045 3.48009 1.38481 3.48009 1.65002V2.08002H3.18009C2.79934 2.08131 2.42262 2.15808 2.07173 2.3059C1.72084 2.45372 1.40274 2.66965 1.13584 2.9412C0.868937 3.21275 0.658532 3.53453 0.516795 3.88792C0.375058 4.24132 0.304802 4.6193 0.310092 5.00002V14.53C0.310092 15.2912 0.612467 16.0212 1.1507 16.5594C1.68893 17.0977 2.41892 17.4 3.18009 17.4H10.8201C11.197 17.4 11.5702 17.3258 11.9184 17.1816C12.2666 17.0373 12.583 16.8259 12.8495 16.5594C13.116 16.2929 13.3274 15.9765 13.4716 15.6283C13.6159 15.2801 13.6901 14.9069 13.6901 14.53V5.00002C13.6954 4.6193 13.6251 4.24132 13.4834 3.88792C13.3417 3.53453 13.1312 3.21275 12.8643 2.9412C12.5974 2.66965 12.2793 2.45372 11.9285 2.3059C11.5776 2.15808 11.2008 2.08131 10.8201 2.08002ZM11.6901 14.48C11.6901 14.7108 11.5984 14.9321 11.4353 15.0952C11.2721 15.2584 11.0508 15.35 10.8201 15.35H3.18009C2.94935 15.35 2.72807 15.2584 2.56491 15.0952C2.40175 14.9321 2.31009 14.7108 2.31009 14.48V5.00002C2.31009 4.76929 2.40175 4.548 2.56491 4.38484C2.72807 4.22168 2.94935 4.13002 3.18009 4.13002H3.52009V4.56002C3.52009 4.82524 3.62545 5.0796 3.81299 5.26713C4.00052 5.45467 4.25488 5.56002 4.52009 5.56002C4.78531 5.56002 5.03966 5.45467 5.2272 5.26713C5.41474 5.0796 5.52009 4.82524 5.52009 4.56002V4.08002H8.52009V4.51002C8.52009 4.77524 8.62545 5.02959 8.81299 5.21713C9.00052 5.40467 9.25488 5.51002 9.52009 5.51002C9.78531 5.51002 10.0397 5.40467 10.2272 5.21713C10.4147 5.02959 10.5201 4.77524 10.5201 4.51002V4.08002H10.8601C11.0908 4.08002 11.3121 4.17168 11.4753 4.33484C11.6384 4.498 11.7301 4.71929 11.7301 4.95002L11.6901 14.48Z" fill="#847E95"/>
</svg>
