<svg width="18" height="18" viewBox="0 0 18 18" fill="none" xmlns="http://www.w3.org/2000/svg">
<path d="M8.24996 15.19C8.07979 15.1089 7.93598 14.9814 7.83513 14.8222C7.73428 14.663 7.68049 14.4785 7.67996 14.29V12.4C7.6787 12.3842 7.67433 12.3688 7.6671 12.3547C7.65988 12.3407 7.64993 12.3282 7.63785 12.3179C7.62577 12.3077 7.61178 12.3 7.5967 12.2952C7.58161 12.2904 7.56573 12.2886 7.54996 12.29C6.80931 12.3306 6.08832 12.5433 5.44429 12.9113C4.80026 13.2793 4.25094 13.7925 3.83996 14.41C3.73021 14.5851 3.5689 14.7219 3.37821 14.8016C3.18753 14.8813 2.97684 14.9 2.77511 14.855C2.57339 14.8101 2.39055 14.7037 2.25174 14.5506C2.11293 14.3975 2.02497 14.2051 1.99996 14C1.88545 12.9459 1.98593 11.8796 2.29532 10.8655C2.60471 9.85142 3.11657 8.9106 3.79996 8.09998C4.81945 7.01279 6.14424 6.25975 7.59996 5.93998C7.62288 5.93531 7.64345 5.92274 7.65806 5.90447C7.67268 5.8862 7.68043 5.86338 7.67996 5.83998V3.70998C7.68049 3.5215 7.73428 3.337 7.83513 3.17776C7.93598 3.01852 8.07979 2.89103 8.24996 2.80998C8.4221 2.7272 8.61435 2.69544 8.80397 2.71848C8.99359 2.74152 9.17265 2.81838 9.31996 2.93998L15.7 8.22998C15.8132 8.32382 15.9043 8.44147 15.9669 8.57457C16.0295 8.70766 16.0619 8.85292 16.0619 8.99998C16.0619 9.14705 16.0295 9.2923 15.9669 9.4254C15.9043 9.55849 15.8132 9.67615 15.7 9.76998L9.31996 15.06C9.14004 15.2091 8.91361 15.2904 8.67996 15.29C8.53072 15.2913 8.38332 15.257 8.24996 15.19ZM9.79996 5.93998C9.79996 5.93998 9.74996 5.88998 9.70996 5.93998C9.66996 5.98998 9.70996 6.02998 9.70996 6.02998V6.82998C9.71757 7.02927 9.66161 7.22582 9.55015 7.3912C9.4387 7.55659 9.27753 7.68224 9.08996 7.74998C8.93697 7.79353 8.77899 7.81706 8.61996 7.81998C7.64892 7.88729 6.71981 8.24169 5.95062 8.83816C5.18143 9.43464 4.60688 10.2463 4.29996 11.17C4.29692 11.1843 4.29789 11.1993 4.30276 11.2131C4.30763 11.2269 4.31621 11.2392 4.32756 11.2485C4.33892 11.2578 4.35261 11.2637 4.36715 11.2658C4.38168 11.2678 4.39649 11.2658 4.40996 11.26C5.71086 10.5222 7.19683 10.175 8.68996 10.26H8.79996C9.04387 10.2895 9.26839 10.4077 9.4307 10.5921C9.593 10.7766 9.68173 11.0143 9.67996 11.26V12C9.67996 12 9.67996 12.11 9.73996 12.11C9.79996 12.11 9.83996 12.11 9.83996 12.11L13.33 9.20998C13.3506 9.19517 13.3674 9.17565 13.379 9.15305C13.3906 9.13044 13.3967 9.10539 13.3967 9.07998C13.3967 9.05457 13.3906 9.02953 13.379 9.00692C13.3674 8.98431 13.3506 8.9648 13.33 8.94998L9.79996 5.93998Z" fill="#847E95"/>
</svg>
