<svg width="18" height="18" viewBox="0 0 18 18" fill="none" xmlns="http://www.w3.org/2000/svg">
<path d="M16.3799 9.99996C16.4722 9.86204 16.5557 9.71842 16.6299 9.56996V9.50996V9.38996C16.8998 8.8194 17.0529 8.20058 17.0799 7.56996C17.0897 7.42346 17.0897 7.27647 17.0799 7.12996C17.0898 6.97012 17.0898 6.80981 17.0799 6.64996C17.0722 6.45448 17.0454 6.26022 16.9999 6.06996C16.9999 5.93996 16.9399 5.79996 16.8899 5.65996C16.6108 4.88319 16.1368 4.19112 15.5134 3.65006C14.8901 3.10901 14.1382 2.73709 13.3299 2.56996C13.1414 2.53351 12.9512 2.50681 12.7599 2.48996C12.5867 2.48007 12.4131 2.48007 12.2399 2.48996H11.8799H11.6899C11.5381 2.51031 11.3878 2.54037 11.2399 2.57996H11.1499L10.6899 2.72996H10.6399C10.4819 2.79313 10.3283 2.86662 10.1799 2.94996V2.94996C10.0322 3.03274 9.88866 3.12285 9.74991 3.21996V3.21996C9.61001 3.31453 9.4764 3.41808 9.34991 3.52996L9.27991 3.58996C9.23591 3.62932 9.17895 3.65108 9.11991 3.65108C9.06088 3.65108 9.00392 3.62932 8.95991 3.58996H8.90991C8.77881 3.46909 8.63838 3.35874 8.48991 3.25996V3.25996C8.33991 3.15996 8.18991 3.05996 8.03991 2.97996C7.89139 2.89988 7.73772 2.82973 7.57991 2.76996H7.45991L6.89991 2.63996L6.65991 2.58996C6.55991 2.58996 6.46991 2.58996 6.36991 2.52996H5.91991H5.81991C5.43782 2.52012 5.05574 2.55029 4.67991 2.61996C3.87711 2.78245 3.12895 3.14684 2.50607 3.67874C1.88318 4.21064 1.40612 4.89251 1.11991 5.65996C0.897977 6.25037 0.799283 6.87997 0.829915 7.50996C0.840113 7.64789 0.860164 7.7849 0.889915 7.91996C0.916598 8.09196 0.953328 8.26225 0.999915 8.42996C1.00411 8.48655 1.00411 8.54337 0.999915 8.59996C1.06713 8.84979 1.15407 9.09389 1.25991 9.32996L1.30991 9.46996C1.39176 9.62471 1.48189 9.77492 1.57991 9.91996C1.59382 9.95659 1.61414 9.99046 1.63991 10.02C2.44991 11.2 5.13991 13.35 7.23991 14.94C7.74701 15.3212 8.36549 15.5251 8.99991 15.52V15.52C9.62774 15.5222 10.239 15.3184 10.7399 14.94C12.8399 13.35 15.5299 11.2 16.3799 9.99996ZM9.52991 13.35C9.37791 13.4667 9.19159 13.53 8.99991 13.53C8.80823 13.53 8.62192 13.4667 8.46991 13.35C6.80751 12.1395 5.22737 10.8199 3.73991 9.39996L3.57991 9.22996C3.49827 9.13735 3.4215 9.04055 3.34991 8.93996V8.93996L3.28991 8.85996L3.19991 8.72996C3.19991 8.72996 3.19991 8.64996 3.19991 8.60996C3.19991 8.54996 3.19991 8.48996 3.12991 8.43996C2.96797 8.11851 2.87295 7.76754 2.8506 7.40829C2.82825 7.04905 2.87905 6.689 2.99991 6.34996C3.16369 5.89678 3.43932 5.49232 3.8012 5.17414C4.16308 4.85597 4.5995 4.63438 5.06991 4.52996C5.28589 4.50543 5.50394 4.50543 5.71991 4.52996H5.98991C6.12574 4.54212 6.25986 4.56894 6.38991 4.60996L6.64991 4.67996C7.11284 4.85136 7.54254 5.10174 7.91991 5.41996L8.29991 5.72996C8.4491 5.84253 8.62472 5.91484 8.80992 5.93996H9.18991C9.37511 5.91484 9.55073 5.84253 9.69991 5.72996L10.0799 5.41996C10.4609 5.10157 10.8939 4.85124 11.3599 4.67996L11.5999 4.60996C11.7308 4.5675 11.8644 4.53408 11.9999 4.50996H12.2299C12.4525 4.48495 12.6773 4.48495 12.8999 4.50996C13.378 4.61165 13.8221 4.83417 14.1897 5.15629C14.5573 5.47841 14.8363 5.88937 14.9999 6.34996C15.1384 6.70986 15.1976 7.09539 15.1734 7.48025C15.1492 7.8651 15.0423 8.24021 14.8599 8.57996C14.8314 8.62612 14.8111 8.67687 14.7999 8.72996V8.72996C14.7752 8.78292 14.745 8.83319 14.7099 8.87996V8.87996C13.1548 10.524 11.4359 12.005 9.57991 13.3L9.52991 13.35Z" fill="#847E95"/>
</svg>
