<svg width="14" height="18" viewBox="0 0 14 18" fill="none" xmlns="http://www.w3.org/2000/svg">
<path d="M6.99999 9.94004C6.42995 9.94202 5.87216 9.77479 5.39723 9.45954C4.9223 9.14429 4.55161 8.69519 4.33209 8.16911C4.11258 7.64304 4.05412 7.06365 4.16411 6.50433C4.2741 5.94501 4.54761 5.43091 4.94998 5.02713C5.35236 4.62336 5.8655 4.34807 6.42444 4.23613C6.98338 4.12419 7.56296 4.18064 8.08979 4.39832C8.61663 4.616 9.06701 4.98513 9.38392 5.45896C9.70082 5.93279 9.86998 6.49 9.86999 7.06004C9.86999 7.82213 9.56794 8.55316 9.02999 9.09298C8.49205 9.6328 7.76208 9.93739 6.99999 9.94004ZM6.99999 6.19004C6.8251 6.18806 6.6536 6.23824 6.50736 6.33417C6.36112 6.4301 6.24679 6.56743 6.17894 6.72863C6.1111 6.88983 6.09284 7.06759 6.12647 7.23922C6.16011 7.41085 6.24412 7.56857 6.36779 7.69224C6.49146 7.8159 6.64917 7.89992 6.8208 7.93355C6.99243 7.96719 7.17019 7.94892 7.33139 7.88108C7.49259 7.81324 7.62992 7.6989 7.72585 7.55266C7.82178 7.40643 7.87196 7.23492 7.86999 7.06004C7.86999 6.8293 7.77833 6.60801 7.61517 6.44485C7.45201 6.2817 7.23073 6.19004 6.99999 6.19004Z" fill="#366EFF"/>
<path d="M7.00001 17.23C6.60254 17.2271 6.21932 17.0816 5.92001 16.82C4.33001 15.43 0.640015 11.7 0.640015 7.12002C0.651157 6.27515 0.830802 5.441 1.16843 4.66643C1.50605 3.89187 1.99486 3.19248 2.60622 2.60923C3.21758 2.02599 3.93919 1.57062 4.72878 1.26981C5.51836 0.968994 6.36005 0.828788 7.20451 0.857402C8.04897 0.886017 8.87923 1.08288 9.64664 1.43645C10.4141 1.79002 11.1032 2.29319 11.6737 2.91648C12.2441 3.53978 12.6845 4.27065 12.9689 5.06629C13.2533 5.86193 13.3761 6.70633 13.33 7.55002C13.11 12.08 9.57001 15.55 8.06001 16.84C7.76313 17.0899 7.38807 17.2279 7.00001 17.23ZM7.00001 2.77002C5.94755 2.76291 4.92936 3.14384 4.14001 3.84002C3.63307 4.369 3.24222 4.99806 2.99253 5.68687C2.74283 6.37569 2.63979 7.10907 2.69001 7.84002C3.03001 10.84 5.37001 13.5 6.69001 14.76C6.77796 14.8467 6.89651 14.8954 7.02001 14.8954C7.14352 14.8954 7.26207 14.8467 7.35001 14.76C8.70002 13.48 11.19 10.71 11.35 7.42002C11.4265 6.34002 11.0966 5.27043 10.425 4.4212C9.75336 3.57197 8.78858 3.00444 7.72001 2.83002C7.48196 2.79114 7.24122 2.77107 7.00001 2.77002Z" fill="#366EFF"/>
</svg>
