<svg width="18" height="18" viewBox="0 0 18 18" fill="none" xmlns="http://www.w3.org/2000/svg">
<path d="M5.71988 15.27C5.55576 15.2693 5.39314 15.2388 5.23988 15.18C5.01992 15.0886 4.82714 14.9422 4.68005 14.7548C4.53295 14.5675 4.43648 14.3454 4.39988 14.11L4.17988 12.84C4.17359 12.7892 4.15049 12.7419 4.11426 12.7057C4.07803 12.6694 4.03073 12.6463 3.97988 12.64C3.26482 12.5214 2.61367 12.1566 2.13895 11.6089C1.66422 11.0611 1.39574 10.3647 1.37988 9.64005V5.64005C1.40859 4.81776 1.75892 4.03959 2.35548 3.47294C2.95205 2.9063 3.7472 2.59645 4.56988 2.61005H13.4299C14.2593 2.59664 15.0603 2.91197 15.658 3.48718C16.2557 4.06239 16.6015 4.85073 16.6199 5.68005V9.68005C16.6015 10.5085 16.2554 11.2958 15.6574 11.8694C15.0594 12.443 14.2584 12.7561 13.4299 12.74H9.48988C9.27608 12.7396 9.06962 12.8179 8.90988 12.96L6.60988 14.96C6.35227 15.1527 6.04141 15.2609 5.71988 15.27ZM4.56988 4.59005C4.27075 4.57637 3.97825 4.68093 3.75558 4.88115C3.53291 5.08136 3.39796 5.36115 3.37988 5.66005V9.61005C3.40046 9.90716 3.5365 10.1844 3.75889 10.3825C3.98129 10.5806 4.27237 10.6838 4.56988 10.67H5.04988C5.29556 10.6683 5.53329 10.757 5.71773 10.9193C5.90217 11.0816 6.02041 11.3061 6.04988 11.55L6.14988 12.36C6.15404 12.3881 6.16557 12.4145 6.18328 12.4366C6.201 12.4587 6.22427 12.4757 6.25071 12.4859C6.27716 12.4961 6.30583 12.499 6.33379 12.4945C6.36176 12.4899 6.38802 12.4781 6.40988 12.46L7.82988 11.18C8.1956 10.8526 8.66898 10.6711 9.15988 10.67H13.4399C13.7374 10.6838 14.0285 10.5806 14.2509 10.3825C14.4733 10.1844 14.6093 9.90716 14.6299 9.61005V5.66005C14.6118 5.36115 14.4769 5.08136 14.2542 4.88115C14.0315 4.68093 13.739 4.57637 13.4399 4.59005H4.56988Z" fill="#847E95"/>
</svg>
