<svg width="18" height="18" viewBox="0 0 18 18" fill="none" xmlns="http://www.w3.org/2000/svg">
<path d="M15.73 3.74C15.6634 3.4838 15.498 3.26444 15.27 3.13L12.55 1.5C12.3219 1.36478 12.0494 1.32569 11.7925 1.39132C11.5356 1.45696 11.3153 1.62194 11.18 1.85L6.65 9.43C6.54135 9.61028 6.49235 9.82025 6.51 10.03L6.73 12.76C6.74317 12.9198 6.79456 13.074 6.87984 13.2098C6.96512 13.3455 7.08178 13.4588 7.22 13.54C7.37435 13.6316 7.55051 13.6799 7.73 13.68C7.86837 13.6801 8.00502 13.6494 8.13 13.59L10.64 12.49C10.829 12.4034 10.9863 12.2601 11.09 12.08L15.62 4.5C15.6875 4.38682 15.732 4.26141 15.7509 4.13098C15.7697 4.00055 15.7626 3.86768 15.73 3.74ZM13.33 4.48L9.57 10.78C9.52012 10.8601 9.4468 10.923 9.36 10.96L8.7 11.25C8.68307 11.2586 8.6642 11.2627 8.64522 11.2619C8.62624 11.2611 8.60779 11.2554 8.59168 11.2453C8.57557 11.2352 8.56234 11.2212 8.55328 11.2045C8.54422 11.1878 8.53965 11.169 8.54 11.15L8.48 10.44C8.4697 10.3427 8.49072 10.2446 8.54 10.16L12.3 3.86C12.3266 3.82049 12.367 3.79241 12.4133 3.78129C12.4596 3.77018 12.5084 3.77686 12.55 3.8L13.27 4.23C13.3095 4.25657 13.3376 4.29701 13.3487 4.34331C13.3598 4.38961 13.3531 4.43839 13.33 4.48Z" fill="#366EFF"/>
<path d="M12.81 16.64H5.19C4.36252 16.64 3.56894 16.3113 2.98383 15.7262C2.39871 15.1411 2.07 14.3475 2.07 13.52V5.9C2.07 5.0716 2.39839 4.27699 2.98322 3.69028C3.56805 3.10358 4.36161 2.77265 5.19 2.77H7.71C7.84132 2.77 7.97136 2.79587 8.09268 2.84612C8.21401 2.89638 8.32425 2.97004 8.41711 3.06289C8.50997 3.15575 8.58362 3.26599 8.63388 3.38732C8.68413 3.50864 8.71 3.63868 8.71 3.77C8.71 3.90132 8.68413 4.03136 8.63388 4.15268C8.58362 4.27401 8.50997 4.38425 8.41711 4.47711C8.32425 4.56997 8.21401 4.64363 8.09268 4.69388C7.97136 4.74413 7.84132 4.77 7.71 4.77H5.19C4.89204 4.77264 4.60718 4.89285 4.39743 5.10448C4.18767 5.31612 4.06999 5.60203 4.07 5.9V13.52C4.07 13.817 4.188 14.1019 4.39804 14.312C4.60808 14.522 4.89296 14.64 5.19 14.64H12.81C13.107 14.64 13.3919 14.522 13.602 14.312C13.812 14.1019 13.93 13.817 13.93 13.52V9.71C13.93 9.44478 14.0354 9.19043 14.2229 9.00289C14.4104 8.81536 14.6648 8.71 14.93 8.71C15.1952 8.71 15.4496 8.81536 15.6371 9.00289C15.8246 9.19043 15.93 9.44478 15.93 9.71V13.52C15.93 14.3475 15.6013 15.1411 15.0162 15.7262C14.4311 16.3113 13.6375 16.64 12.81 16.64Z" fill="#366EFF"/>
</svg>
