<svg width="14" height="15" viewBox="0 0 14 15" fill="none" xmlns="http://www.w3.org/2000/svg">
<path d="M7.0001 10.81C6.52172 10.8127 6.04754 10.7207 5.60481 10.5395C5.16209 10.3582 4.75956 10.0913 4.42036 9.75393C4.08116 9.41659 3.81199 9.01554 3.62832 8.57382C3.44464 8.1321 3.35009 7.65843 3.3501 7.18004V3.48004C3.39895 2.54895 3.80323 1.6721 4.47957 1.03032C5.1559 0.388542 6.05273 0.0307617 6.9851 0.0307617C7.91747 0.0307617 8.81429 0.388542 9.49063 1.03032C10.167 1.6721 10.5712 2.54895 10.6201 3.48004V7.18004C10.6201 8.14105 10.239 9.06284 9.56043 9.74331C8.88184 10.4238 7.9611 10.8074 7.0001 10.81ZM7.0001 1.81004C6.78096 1.80728 6.56351 1.84875 6.36076 1.93195C6.15802 2.01516 5.97413 2.13839 5.8201 2.29429C5.66607 2.45019 5.54505 2.63555 5.4643 2.83928C5.38354 3.04302 5.3447 3.26095 5.3501 3.48004V7.18004C5.38231 7.59158 5.56853 7.97584 5.8716 8.25612C6.17467 8.5364 6.57229 8.69207 6.9851 8.69207C7.3979 8.69207 7.79552 8.5364 8.09859 8.25612C8.40166 7.97584 8.58789 7.59158 8.6201 7.18004V3.48004C8.61751 3.05026 8.44631 2.63867 8.14335 2.33384C7.84038 2.029 7.42985 1.85527 7.0001 1.85004V1.81004Z" fill="#847E95"/>
<path d="M7.00009 14.1501C5.58078 14.1473 4.19727 13.7043 3.04028 12.8822C1.88328 12.0602 1.00975 10.8994 0.540093 9.56009C0.496757 9.43599 0.478288 9.30457 0.485741 9.17333C0.493195 9.0421 0.526424 8.91361 0.583532 8.79522C0.64064 8.67682 0.720508 8.57084 0.818577 8.48331C0.916645 8.39578 1.03099 8.32842 1.15509 8.28509C1.27919 8.24175 1.41061 8.22328 1.54185 8.23074C1.67309 8.23819 1.80157 8.27142 1.91996 8.32853C2.03836 8.38564 2.14435 8.4655 2.23187 8.56357C2.3194 8.66164 2.38676 8.77599 2.43009 8.90009C2.76087 9.84845 3.37849 10.6704 4.19734 11.252C5.01619 11.8337 5.9957 12.1461 7.00009 12.1461C8.00448 12.1461 8.984 11.8337 9.80285 11.252C10.6217 10.6704 11.2393 9.84845 11.5701 8.90009C11.6576 8.64946 11.8411 8.44386 12.0802 8.32853C12.1986 8.27142 12.3271 8.23819 12.4583 8.23074C12.5896 8.22328 12.721 8.24175 12.8451 8.28509C12.9692 8.32842 13.0835 8.39578 13.1816 8.48331C13.2797 8.57084 13.3595 8.67682 13.4167 8.79522C13.4738 8.91361 13.507 9.0421 13.5144 9.17333C13.5219 9.30457 13.5034 9.43599 13.4601 9.56009C12.9904 10.8994 12.1169 12.0602 10.9599 12.8822C9.80291 13.7043 8.41941 14.1473 7.00009 14.1501Z" fill="#847E95"/>
</svg>
