<svg width="16" height="16" viewBox="0 0 16 16" fill="none" xmlns="http://www.w3.org/2000/svg">
<path d="M14.16 3.27653H10.9C10.7767 2.48453 10.3743 1.7627 9.76549 1.24134C9.15668 0.719982 8.38154 0.433441 7.58 0.433441C6.77846 0.433441 6.00332 0.719982 5.39451 1.24134C4.78569 1.7627 4.38331 2.48453 4.26 3.27653H1C0.734784 3.27653 0.48043 3.38188 0.292893 3.56942C0.105357 3.75696 0 4.01131 0 4.27653C0 4.54174 0.105357 4.7961 0.292893 4.98363C0.48043 5.17117 0.734784 5.27653 1 5.27653H1.83L2.4 12.7965C2.45806 13.5517 2.79959 14.2569 3.35603 14.7707C3.91247 15.2844 4.64264 15.5688 5.4 15.5665H9.78C10.5374 15.5688 11.2675 15.2844 11.824 14.7707C12.3804 14.2569 12.7219 13.5517 12.78 12.7965L13.35 5.27653H14.18C14.4452 5.27653 14.6996 5.17117 14.8871 4.98363C15.0746 4.7961 15.18 4.54174 15.18 4.27653C15.18 4.01131 15.0746 3.75696 14.8871 3.56942C14.6996 3.38188 14.4452 3.27653 14.18 3.27653H14.16ZM7.58 2.44653C7.8485 2.44504 8.11143 2.52307 8.33565 2.67077C8.55988 2.81848 8.73537 3.02925 8.84 3.27653H6.32C6.42463 3.02925 6.60012 2.81848 6.82435 2.67077C7.04857 2.52307 7.3115 2.44504 7.58 2.44653ZM10.77 12.6465C10.7498 12.8976 10.6357 13.1319 10.4503 13.3025C10.2649 13.473 10.0219 13.5673 9.77 13.5665H5.39C5.13808 13.5673 4.89514 13.473 4.70974 13.3025C4.52434 13.1319 4.41015 12.8976 4.39 12.6465L3.83 5.27653H11.33L10.77 12.6465Z" fill="#FF0000"/>
</svg>
