<svg width="17" height="15" viewBox="0 0 17 15" fill="none" xmlns="http://www.w3.org/2000/svg">
<mask id="path-1-inside-1_0_685" fill="white">
<path d="M3.3999 1.08716C3.3999 0.534875 3.84762 0.0871582 4.3999 0.0871582H12.5999C13.1522 0.0871582 13.5999 0.534873 13.5999 1.08716V6.03716C13.5999 8.85381 11.3166 11.1372 8.4999 11.1372C5.68325 11.1372 3.3999 8.85381 3.3999 6.03716V1.08716Z"/>
</mask>
<path d="M3.3999 1.08716C3.3999 0.534875 3.84762 0.0871582 4.3999 0.0871582H12.5999C13.1522 0.0871582 13.5999 0.534873 13.5999 1.08716V6.03716C13.5999 8.85381 11.3166 11.1372 8.4999 11.1372C5.68325 11.1372 3.3999 8.85381 3.3999 6.03716V1.08716Z" stroke="#0047FF" stroke-width="4" mask="url(#path-1-inside-1_0_685)"/>
<mask id="path-2-inside-2_0_685" fill="white">
<path d="M11.8999 13.8288C11.8999 14.22 11.5828 14.5372 11.1916 14.5372L5.80823 14.5372C5.41703 14.5372 5.0999 14.22 5.0999 13.8288L5.0999 13.6872C5.0999 11.8094 6.62213 10.2872 8.4999 10.2872C10.3777 10.2872 11.8999 11.8094 11.8999 13.6872L11.8999 13.8288Z"/>
</mask>
<path d="M11.8999 13.8288C11.8999 14.22 11.5828 14.5372 11.1916 14.5372L5.80823 14.5372C5.41703 14.5372 5.0999 14.22 5.0999 13.8288L5.0999 13.6872C5.0999 11.8094 6.62213 10.2872 8.4999 10.2872C10.3777 10.2872 11.8999 11.8094 11.8999 13.6872L11.8999 13.8288Z" stroke="#0047FF" stroke-width="4" mask="url(#path-2-inside-2_0_685)"/>
<mask id="path-3-inside-3_0_685" fill="white">
<path d="M12.4666 5.99359C12.1536 5.99359 11.8999 5.73989 11.8999 5.42692L11.8999 0.0435915L15.8099 0.0435914C16.4671 0.0435914 16.9999 0.576372 16.9999 1.23359L16.9999 1.46026C16.9999 3.96395 14.9703 5.99359 12.4666 5.99359Z"/>
</mask>
<path d="M12.4666 5.99359C12.1536 5.99359 11.8999 5.73989 11.8999 5.42692L11.8999 0.0435915L15.8099 0.0435914C16.4671 0.0435914 16.9999 0.576372 16.9999 1.23359L16.9999 1.46026C16.9999 3.96395 14.9703 5.99359 12.4666 5.99359Z" stroke="#0047FF" stroke-width="4" mask="url(#path-3-inside-3_0_685)"/>
<mask id="path-4-inside-4_0_685" fill="white">
<path d="M4.53343 5.95001C4.84639 5.95001 5.1001 5.69631 5.1001 5.38335L5.1001 1.23978e-05L1.1901 1.22748e-05C0.532878 1.22542e-05 9.7604e-05 0.532793 9.75641e-05 1.19001L9.75503e-05 1.41668C9.73981e-05 3.92037 2.02974 5.95001 4.53343 5.95001Z"/>
</mask>
<path d="M4.53343 5.95001C4.84639 5.95001 5.1001 5.69631 5.1001 5.38335L5.1001 1.23978e-05L1.1901 1.22748e-05C0.532878 1.22542e-05 9.7604e-05 0.532793 9.75641e-05 1.19001L9.75503e-05 1.41668C9.73981e-05 3.92037 2.02974 5.95001 4.53343 5.95001Z" stroke="#0047FF" stroke-width="4" mask="url(#path-4-inside-4_0_685)"/>
</svg>
