<svg width="53" height="13" viewBox="0 0 53 13" fill="none" xmlns="http://www.w3.org/2000/svg">
<g clip-path="url(#clip0_0_185)">
<path d="M25.6403 0.5L31.9248 12.5H34.3255L28.0409 0.5H25.6403Z" fill="black"/>
<path d="M37.7405 2.66721H35.5975V12.4702H37.7405V2.66721Z" fill="black"/>
<path d="M39.884 0.531097H37.7411V2.66725H39.884V0.531097Z" fill="black"/>
<path d="M25.3486 10.3172H23.2056V12.4702H25.3486V10.3172Z" fill="black"/>
<path d="M7.79607 5.96215C8.20972 5.39639 8.45455 4.69858 8.45455 3.94251C8.45455 2.05752 6.93399 0.529846 5.05778 0.529846H0V5.22162V7.35647V12.5001H5.60544C7.60536 12.5001 9.22772 10.8701 9.22772 8.86084C9.22772 7.67754 8.66588 6.62759 7.79607 5.96215ZM2.1262 2.66729H5.05778C5.75879 2.66729 6.32835 3.23952 6.32835 3.94381C6.32835 4.64809 5.75879 5.22032 5.05778 5.22032H2.1262V2.66729ZM5.60544 10.3639H2.1262V7.35777H5.60544C6.43015 7.35777 7.10151 8.03227 7.10151 8.86084C7.10151 9.68941 6.43144 10.3639 5.60544 10.3639Z" fill="black"/>
<path d="M50.524 12.4703H52.6669V0.531097H50.524H50.2907L46.9932 7.44058L43.6956 0.531097H43.4624H41.3195V12.4703H43.4624V5.0209L45.8051 9.93017L46.4082 11.195H47.5782L48.1813 9.93017L50.524 5.0209V12.4703Z" fill="black"/>
<path d="M18.7283 12.4703H21.2926L18.4486 8.12549C19.7037 7.44192 20.5568 6.10715 20.5568 4.57041C20.5568 2.33975 18.7566 0.529846 16.5351 0.529846H13.9888H11.8471V8.60968V12.469H13.9901V8.61098H16.2013L18.7283 12.4703ZM13.9901 2.66729H16.5363C17.5814 2.66729 18.4319 3.52176 18.4319 4.57171C18.4319 5.62166 17.5814 6.47612 16.5363 6.47612H13.9901V2.66729Z" fill="black"/>
<path d="M27.2939 8.26517H25.3481V10.4182H28.4215L27.2939 8.26517Z" fill="black"/>
</g>
<defs>
<clipPath id="clip0_0_185">
<rect width="52.6667" height="12" fill="white" transform="translate(0 0.5)"/>
</clipPath>
</defs>
</svg>
